<svg width="18" height="24" fill="none" xmlns="http://www.w3.org/2000/svg"><path fill-rule="evenodd" clip-rule="evenodd" d="M13.5 2.182h3.375c.621 0 1.125.488 1.125 1.09H0c0-.602.504-1.09 1.125-1.09H4.5C4.5.977 5.507 0 6.75 0h4.5c1.243 0 2.25.977 2.25 2.182zM1.066 4.277h15.829l-.79 18.349S15.807 24 14.684 24H3.315c-1.123 0-1.42-1.375-1.42-1.375l-.83-18.348zm12.321 2.268h-1.125l-.562 15.75h1.125l.563-15.75zm-7.2 15.75l-.562-15.75H4.5l.562 15.75h1.126zm2.25-15.75v15.75h1.126V6.546H8.438z" fill="#333"/></svg>