<svg width="18" height="24" xmlns="http://www.w3.org/2000/svg"><path opacity=".8" d="M6.105 2.805v-.624c0-.343.341-.623.76-.623h4.27c.42 0 .762.28.762.623v.624H6.105zm9.248 1.558c-.089 2.353-.64 16.773-.71 17.422-.04.388-.182.58-.257.657H3.616c-.077-.077-.217-.269-.258-.657-.069-.65-.686-15.058-.786-17.422h12.781zm-1.928-1.558v-.624C13.425.978 12.467 0 11.288 0H6.713C5.534 0 4.576.978 4.576 2.18v.625H0v1.558h1.043l.794 17.988C1.85 22.418 2.19 24 3.509 24H14.49c1.32 0 1.66-1.582 1.68-1.7l.75-17.937H18V2.805h-4.575zm-.31 2.806h-1.53l-.476 15.584h1.528l.477-15.584zm-4.88 15.584h1.53V5.611h-1.53v15.584zm-1.344 0L6.415 5.61h-1.53l.476 15.584h1.53z"/></svg>