<svg width="24" height="24" xmlns="http://www.w3.org/2000/svg"><path d="M12 24c6.627 0 12-5.373 12-12S18.627 0 12 0 0 5.373 0 12s5.373 12 12 12zm6.076-14.384l-7.848 8.103L5.87 13.22a1.276 1.276 0 01-.307-.495 1.119 1.119 0 01-.041-.587c.045-.227.162-.442.35-.636.186-.192.398-.317.628-.367.227-.048.432-.014.593.045.185.068.357.182.491.327l2.644 2.729 6.159-6.358c.15-.141.329-.25.525-.316.162-.053.367-.086.594-.04.232.047.45.168.64.365a1.2 1.2 0 01.342.655c.035.232-.012.437-.077.594a1.357 1.357 0 01-.335.48z" fill="#333"/></svg>