<svg width="30" height="30" fill="none" xmlns="http://www.w3.org/2000/svg"><path d="M22.2 22.8H7.8C6.78 22.8 6 22.02 6 21V7.8C6 6.78 6.66 6 7.5 6h.9v1.2h-.9c-.12 0-.3.24-.3.6V21c0 .36.24.6.6.6h14.4c.36 0 .6-.24.6-.6V7.8c0-.36-.18-.6-.3-.6h-.9V6h.9c.84 0 1.5.78 1.5 1.8V21c0 1.02-.78 1.8-1.8 1.8z" fill="#000"/><path d="M10.2 8.4c-.36 0-.6-.24-.6-.6V5.4c0-.36.24-.6.6-.6s.6.24.6.6v2.4c0 .36-.24.6-.6.6zm9.6 0c-.36 0-.6-.24-.6-.6V5.4c0-.36.24-.6.6-.6s.6.24.6.6v2.4c0 .36-.24.6-.6.6zM12 6h6v1.2h-6V6zM7.2 9.6h15.6v1.2H7.2V9.6zM20.4 12h1.2v1.2h-1.2V12zM18 12h1.2v1.2H18V12zm-2.4 0h1.2v1.2h-1.2V12zm-2.4 0h1.2v1.2h-1.2V12zm-2.4 0H12v1.2h-1.2V12zm9.6 2.4h1.2v1.2h-1.2v-1.2zm-2.4 0h1.2v1.2H18v-1.2zm-2.4 0h1.2v1.2h-1.2v-1.2zm-2.4 0h1.2v1.2h-1.2v-1.2zm-2.4 0H12v1.2h-1.2v-1.2zm-2.4 0h1.2v1.2H8.4v-1.2zm12 2.4h1.2V18h-1.2v-1.2zm-2.4 0h1.2V18H18v-1.2zm-2.4 0h1.2V18h-1.2v-1.2zm-2.4 0h1.2V18h-1.2v-1.2zm-2.4 0H12V18h-1.2v-1.2zm-2.4 0h1.2V18H8.4v-1.2zm9.6 2.4h1.2v1.2H18v-1.2zm-2.4 0h1.2v1.2h-1.2v-1.2zm-2.4 0h1.2v1.2h-1.2v-1.2zm-2.4 0H12v1.2h-1.2v-1.2zm-2.4 0h1.2v1.2H8.4v-1.2z" fill="#000"/></svg>