<svg xmlns="http://www.w3.org/2000/svg" xmlns:xlink="http://www.w3.org/1999/xlink"><defs>
<filter id="filter0_d" x="0" y="0" width="50" height="50" filterUnits="userSpaceOnUse" color-interpolation-filters="sRGB">
<feFlood flood-opacity="0" result="BackgroundImageFix"/>
<feColorMatrix in="SourceAlpha" type="matrix" values="0 0 0 0 0 0 0 0 0 0 0 0 0 0 0 0 0 0 127 0"/>
<feOffset dx="5" dy="5"/>
<feGaussianBlur stdDeviation="5"/>
<feColorMatrix type="matrix" values="0 0 0 0 0 0 0 0 0 0 0 0 0 0 0 0 0 0 0.1 0"/>
<feBlend mode="normal" in2="BackgroundImageFix" result="effect1_dropShadow"/>
<feBlend mode="normal" in="SourceGraphic" in2="effect1_dropShadow" result="shape"/>
</filter>
</defs><symbol id="icon-addtask" viewBox="0 0 45 50">
<g filter="url(#filter0_d)">
<rect x="5" y="5" width="30" height="30" rx="15" fill="#F2F2F2"/>
<path fill-rule="evenodd" clip-rule="evenodd" d="M20 12C20.5523 12 21 12.4477 21 13V27C21 27.5523 20.5523 28 20 28C19.4477 28 19 27.5523 19 27V13C19 12.4477 19.4477 12 20 12Z" fill="#828282"/>
<path fill-rule="evenodd" clip-rule="evenodd" d="M12 20C12 19.4477 12.4477 19 13 19H27C27.5523 19 28 19.4477 28 20C28 20.5523 27.5523 21 27 21H13C12.4477 21 12 20.5523 12 20Z" fill="#828282"/>
<rect x="5.5" y="5.5" width="29" height="29" rx="14.5" stroke="#E0E0E0"/>
</g>

</symbol><symbol id="icon-arrow-modal" viewBox="0 0 18 10">
<path fill-rule="evenodd" clip-rule="evenodd" d="M0.524041 0.110295C0.684013 -0.0420589 0.937204 -0.0358839 1.08956 0.124088L8.7999 8.21995L16.5102 0.124088C16.6626 -0.0358839 16.9158 -0.0420589 17.0758 0.110295C17.2357 0.26265 17.2419 0.515841 17.0896 0.675813L9.08956 9.07581C9.01406 9.15509 8.90937 9.19995 8.7999 9.19995C8.69043 9.19995 8.58574 9.15509 8.51025 9.07581L0.510248 0.675813C0.357894 0.515841 0.364069 0.26265 0.524041 0.110295Z" fill="#333333"/>
</symbol><symbol id="icon-arrow" viewBox="0 0 18 10">
<path d="M0.524133 0.110295C0.684105 -0.0420589 0.937295 -0.0358839 1.08965 0.124088L8.79999 8.21995L16.5103 0.124088C16.6627 -0.0358839 16.9159 -0.0420589 17.0759 0.110295C17.2358 0.26265 17.242 0.515841 17.0896 0.675813L9.08965 9.07581C9.01415 9.15509 8.90946 9.19995 8.79999 9.19995C8.69052 9.19995 8.58584 9.15509 8.51034 9.07581L0.510339 0.675813C0.357985 0.515841 0.36416 0.26265 0.524133 0.110295Z" fill="#4F4F4F"/>
</symbol><symbol id="icon-arrow_1" viewBox="0 0 22 13">
<path fill-rule="evenodd" clip-rule="evenodd" d="M0.405173 0.887931C0.605139 0.697488 0.921627 0.705207 1.11207 0.905172L10.75 11.025L20.3879 0.905172C20.5784 0.705207 20.8949 0.697488 21.0948 0.887931C21.2948 1.07837 21.3025 1.39486 21.1121 1.59483L11.1121 12.0948C11.0177 12.1939 10.8868 12.25 10.75 12.25C10.6132 12.25 10.4823 12.1939 10.3879 12.0948L0.387932 1.59483C0.197489 1.39486 0.205208 1.07837 0.405173 0.887931Z" fill="#333333"/>
</symbol><symbol id="icon-calendar" viewBox="0 0 30 30">
<path d="M22.2 22.8H7.8C6.78 22.8 6 22.02 6 21V7.8C6 6.78 6.66 6 7.5 6H8.4V7.2H7.5C7.38 7.2 7.2 7.44 7.2 7.8V21C7.2 21.36 7.44 21.6 7.8 21.6H22.2C22.56 21.6 22.8 21.36 22.8 21V7.8C22.8 7.44 22.62 7.2 22.5 7.2H21.6V6H22.5C23.34 6 24 6.78 24 7.8V21C24 22.02 23.22 22.8 22.2 22.8Z" fill="black"/>
<path d="M10.2001 8.40005C9.8401 8.40005 9.6001 8.16005 9.6001 7.80005V5.40005C9.6001 5.04005 9.8401 4.80005 10.2001 4.80005C10.5601 4.80005 10.8001 5.04005 10.8001 5.40005V7.80005C10.8001 8.16005 10.5601 8.40005 10.2001 8.40005Z" fill="black"/>
<path d="M19.8 8.40005C19.44 8.40005 19.2 8.16005 19.2 7.80005V5.40005C19.2 5.04005 19.44 4.80005 19.8 4.80005C20.16 4.80005 20.4 5.04005 20.4 5.40005V7.80005C20.4 8.16005 20.16 8.40005 19.8 8.40005Z" fill="black"/>
<path d="M12 6H18V7.2H12V6Z" fill="black"/>
<path d="M7.19995 9.6001H22.8V10.8001H7.19995V9.6001Z" fill="black"/>
<path d="M20.3999 12H21.5999V13.2H20.3999V12Z" fill="black"/>
<path d="M18 12H19.2V13.2H18V12Z" fill="black"/>
<path d="M15.6001 12H16.8001V13.2H15.6001V12Z" fill="black"/>
<path d="M13.2 12H14.4V13.2H13.2V12Z" fill="black"/>
<path d="M10.8 12H12V13.2H10.8V12Z" fill="black"/>
<path d="M20.3999 14.3999H21.5999V15.5999H20.3999V14.3999Z" fill="black"/>
<path d="M18 14.3999H19.2V15.5999H18V14.3999Z" fill="black"/>
<path d="M15.6001 14.3999H16.8001V15.5999H15.6001V14.3999Z" fill="black"/>
<path d="M13.2 14.3999H14.4V15.5999H13.2V14.3999Z" fill="black"/>
<path d="M10.8 14.3999H12V15.5999H10.8V14.3999Z" fill="black"/>
<path d="M8.3999 14.3999H9.5999V15.5999H8.3999V14.3999Z" fill="black"/>
<path d="M20.3999 16.8H21.5999V18H20.3999V16.8Z" fill="black"/>
<path d="M18 16.8H19.2V18H18V16.8Z" fill="black"/>
<path d="M15.6001 16.8H16.8001V18H15.6001V16.8Z" fill="black"/>
<path d="M13.2 16.8H14.4V18H13.2V16.8Z" fill="black"/>
<path d="M10.8 16.8H12V18H10.8V16.8Z" fill="black"/>
<path d="M8.3999 16.8H9.5999V18H8.3999V16.8Z" fill="black"/>
<path d="M18 19.2H19.2V20.4H18V19.2Z" fill="black"/>
<path d="M15.6001 19.2H16.8001V20.4H15.6001V19.2Z" fill="black"/>
<path d="M13.2 19.2H14.4V20.4H13.2V19.2Z" fill="black"/>
<path d="M10.8 19.2H12V20.4H10.8V19.2Z" fill="black"/>
<path d="M8.3999 19.2H9.5999V20.4H8.3999V19.2Z" fill="black"/>
</symbol><symbol id="icon-ellipse" viewBox="0 0 20 20">
<circle cx="10" cy="10" r="10" fill="#F2C94C"/>
</symbol><symbol id="icon-ellipse_1" viewBox="0 0 20 20">
<circle cx="10" cy="9.9999" r="9.6" fill="#333333"/>
</symbol><symbol id="icon-ellipse_2" viewBox="0 0 24 24">
<circle cx="12" cy="12" r="12" fill="#333333"/>
</symbol><symbol id="icon-exclude" viewBox="0 0 20 20">
<path d="M10 19.5999C15.3019 19.5999 19.6 15.3018 19.6 9.9999C19.6 4.69797 15.3019 0.399902 10 0.399902C4.69807 0.399902 0.4 4.69797 0.4 9.9999C0.4 15.3018 4.69807 19.5999 10 19.5999ZM14.8604 8.09308L8.58234 14.5748L5.09629 10.9759C5.05206 10.9314 4.92732 10.8033 4.85058 10.5801C4.80644 10.4517 4.78107 10.2899 4.81723 10.11C4.85375 9.92842 4.94741 9.75661 5.09722 9.60194C5.24673 9.44757 5.41614 9.34761 5.59968 9.30827C5.78189 9.26922 5.94562 9.29683 6.07408 9.34391C6.22203 9.39813 6.36016 9.48955 6.46751 9.60528L8.58234 11.7887L13.5092 6.70195C13.6303 6.58917 13.7726 6.50194 13.9299 6.44967C14.0589 6.40683 14.2232 6.38063 14.4051 6.41739C14.5904 6.45487 14.7646 6.55198 14.9171 6.70943C15.0694 6.86671 15.1616 7.04453 15.1904 7.23368C15.2186 7.41929 15.1809 7.58316 15.1285 7.70903C15.0384 7.92548 14.9076 8.0491 14.8604 8.09308Z" fill="#333333"/>
</symbol><symbol id="icon-exclude_1" viewBox="0 0 24 24">
<path d="M12 24C18.6274 24 24 18.6274 24 12C24 5.37258 18.6274 0 12 0C5.37258 0 0 5.37258 0 12C0 18.6274 5.37258 24 12 24ZM18.0755 9.61647L10.2279 17.7187L5.87037 13.22C5.81508 13.1643 5.65915 13.0042 5.56323 12.7252C5.50806 12.5648 5.47634 12.3625 5.52154 12.1377C5.56719 11.9107 5.68426 11.6959 5.87152 11.5025C6.05842 11.3096 6.27018 11.1846 6.4996 11.1355C6.72737 11.0866 6.93203 11.1212 7.0926 11.18C7.27754 11.2478 7.4502 11.3621 7.58439 11.5067L10.2279 14.236L16.3866 7.87756C16.5379 7.73658 16.7158 7.62755 16.9124 7.56221C17.0736 7.50866 17.2791 7.47591 17.5063 7.52186C17.7381 7.56871 17.9557 7.6901 18.1464 7.88692C18.3368 8.08351 18.452 8.30578 18.488 8.54222C18.5233 8.77423 18.4761 8.97907 18.4106 9.13641C18.2979 9.40698 18.1345 9.5615 18.0755 9.61647Z" fill="#333333"/>
</symbol><symbol id="icon-icon" viewBox="0 0 24 24">
<path fill-rule="evenodd" clip-rule="evenodd" d="M0 12C0 18.6274 5.37258 24 12 24C18.6274 24 24 18.6274 24 12C24 5.37258 18.6274 0 12 0C5.37258 0 0 5.37258 0 12ZM22 12C22 17.5228 17.5228 22 12 22C6.47715 22 2 17.5228 2 12C2 6.47715 6.47715 2 12 2C17.5228 2 22 6.47715 22 12Z" fill="#4F4F4F"/>
</symbol><symbol id="icon-oval" viewBox="0 0 18 18">
<path fill="#4D4D4D" d="M9 17C13.4183 17 17 13.4182 17 8.99995C17 4.58167 13.4183 0.999951 9 0.999951C4.58172 0.999951 1 4.58167 1 8.99995C1 13.4182 4.58172 17 9 17ZM9 17.7999C4.13989 17.7999 0.200001 13.8601 0.200001 8.99995C0.200001 4.13985 4.13989 0.199951 9 0.199951C13.8601 0.199951 17.8 4.13985 17.8 8.99995C17.8 13.8601 13.8601 17.7999 9 17.7999Z"/>
</symbol><symbol id="icon-plus" viewBox="0 0 24 24">
<path d="M12 4C12.5523 4 13 4.44772 13 5V19C13 19.5523 12.5523 20 12 20C11.4477 20 11 19.5523 11 19V5C11 4.44772 11.4477 4 12 4Z" fill="#828282"/>
<path d="M4 12C4 11.4477 4.44772 11 5 11H19C19.5523 11 20 11.4477 20 12C20 12.5523 19.5523 13 19 13H5C4.44772 13 4 12.5523 4 12Z" fill="#828282"/>
</symbol><symbol id="icon-plus_1" viewBox="0 0 30 30">
<path fill-rule="evenodd" clip-rule="evenodd" d="M15 5C15.6904 5 16.25 5.55964 16.25 6.25V23.75C16.25 24.4404 15.6904 25 15 25C14.3096 25 13.75 24.4404 13.75 23.75V6.25C13.75 5.55964 14.3096 5 15 5Z" fill="#828282"/>
<path fill-rule="evenodd" clip-rule="evenodd" d="M5 15C5 14.3096 5.55964 13.75 6.25 13.75H23.75C24.4404 13.75 25 14.3096 25 15C25 15.6904 24.4404 16.25 23.75 16.25H6.25C5.55964 16.25 5 15.6904 5 15Z" fill="#828282"/>
</symbol><symbol id="icon-trash-edit-red" viewBox="0 0 18 24">
<path opacity="0.8" d="M6.10468 2.80531V2.18086C6.10468 1.83799 6.44627 1.5585 6.86558 1.5585H11.1355C11.5558 1.5585 11.8974 1.83799 11.8974 2.18086V2.80531H6.10468ZM15.3532 4.36278C15.2642 6.71613 14.7129 21.1355 14.6434 21.7848C14.6025 22.1734 14.4613 22.3646 14.3857 22.4415H3.61533C3.53862 22.3646 3.39851 22.1734 3.3576 21.7848C3.28908 21.1355 2.67237 6.72652 2.57214 4.36278H15.3532ZM13.4253 2.80532V2.18087C13.4253 0.977705 12.467 0 11.2878 0H6.71318C5.53398 0 4.57568 0.977705 4.57568 2.18087V2.80532H0V4.36279H1.04318L1.83682 22.3511C1.85011 22.4176 2.19068 24 3.50898 24H14.49C15.8093 24 16.1499 22.4176 16.1703 22.3002L16.92 4.36279H18V2.80532H13.4253ZM13.1141 5.61083H11.5851L11.1086 21.1949H12.6375L13.1141 5.61083ZM8.23532 21.1951H9.7643V5.61105H8.23532V21.1951ZM6.89128 21.1949L6.41469 5.61083H4.88571L5.36128 21.1949H6.89128Z"/>
</symbol><symbol id="icon-trash-edit" viewBox="0 0 18 24">
<path opacity="0.8" d="M6.10468 2.80531V2.18086C6.10468 1.83799 6.44627 1.5585 6.86558 1.5585H11.1355C11.5558 1.5585 11.8974 1.83799 11.8974 2.18086V2.80531H6.10468ZM15.3532 4.36278C15.2642 6.71613 14.7129 21.1355 14.6434 21.7848C14.6025 22.1734 14.4613 22.3646 14.3857 22.4415H3.61533C3.53862 22.3646 3.39851 22.1734 3.3576 21.7848C3.28908 21.1355 2.67237 6.72652 2.57214 4.36278H15.3532ZM13.4253 2.80532V2.18087C13.4253 0.977705 12.467 0 11.2878 0H6.71318C5.53398 0 4.57568 0.977705 4.57568 2.18087V2.80532H0V4.36279H1.04318L1.83682 22.3511C1.85011 22.4176 2.19068 24 3.50898 24H14.49C15.8093 24 16.1499 22.4176 16.1703 22.3002L16.92 4.36279H18V2.80532H13.4253ZM13.1141 5.61083H11.5851L11.1086 21.1949H12.6375L13.1141 5.61083ZM8.23532 21.1951H9.7643V5.61105H8.23532V21.1951ZM6.89128 21.1949L6.41469 5.61083H4.88571L5.36128 21.1949H6.89128Z"/>
</symbol><symbol id="icon-trash" viewBox="0 0 18 24">
<path fill-rule="evenodd" clip-rule="evenodd" d="M13.5 2.18182H16.875C17.4963 2.18182 18 2.67023 18 3.27273H0C0 2.67023 0.50368 2.18182 1.125 2.18182H4.5C4.5 0.976833 5.50736 0 6.75 0H11.25C12.4926 0 13.5 0.976833 13.5 2.18182ZM1.06581 4.27705H16.8949L16.1053 22.6255C16.1053 22.6255 15.8073 24 14.6838 24H3.31533C2.19223 24 1.89428 22.6255 1.89428 22.6255L1.06581 4.27705ZM13.3875 6.54546H12.2625L11.7 22.2957H12.825L13.3875 6.54546ZM6.18751 22.2957L5.6252 6.54546H4.50001L5.06232 22.2957H6.18751ZM8.43751 6.54546V22.2957H9.56251V6.54546H8.43751Z" fill="#333333"/>
</symbol><symbol id="icon-union" viewBox="0 0 18 18">
<path fill-rule="evenodd" clip-rule="evenodd" d="M0.11867 17.2855C-0.0395567 17.449 -0.0395567 17.7139 0.11867 17.8774C0.276897 18.0408 0.533433 18.0408 0.69166 17.8774L8.99998 9.29592L17.3083 17.8774C17.4666 18.0408 17.7231 18.0408 17.8813 17.8774C18.0396 17.714 18.0396 17.449 17.8813 17.2856L9.57297 8.70409L17.3084 0.714398C17.4666 0.55097 17.4666 0.286 17.3084 0.122571C17.1501 -0.0408571 16.8936 -0.040857 16.7354 0.122571L8.99998 8.11226L1.26463 0.122609C1.1064 -0.0408194 0.849863 -0.0408194 0.691636 0.122609C0.53341 0.286037 0.53341 0.551007 0.691636 0.714436L8.42699 8.70409L0.11867 17.2855Z" fill="#333333"/>
</symbol><symbol id="icon-union_1" viewBox="0 0 15 16">
<path fill-rule="evenodd" clip-rule="evenodd" d="M13.7314 1.13137C13.1065 0.506532 12.0935 0.506532 11.4686 1.13137L10.3373 2.26274L13.1657 5.09117L14.2971 3.9598C14.9219 3.33496 14.9219 2.32189 14.2971 1.69706L13.7314 1.13137ZM0.636316 12.3852L0.154926 15.2735L3.04327 14.7921C3.37221 14.7373 3.6758 14.5811 3.9116 14.3453L12.6 5.65685L9.77158 2.82843L1.08318 11.5168C0.847372 11.7526 0.69114 12.0562 0.636316 12.3852Z" fill="#333333"/>
</symbol><symbol id="icon-union_2" viewBox="0 0 22 21">
<path fill-rule="evenodd" clip-rule="evenodd" d="M19.4142 1.41421C18.6332 0.633165 17.3668 0.633165 16.5858 1.41421L15.1716 2.82843L18.7071 6.36396L20.1213 4.94975C20.9024 4.1687 20.9024 2.90237 20.1213 2.12132L19.4142 1.41421ZM3.04539 15.4815L2.44365 19.0919L6.05408 18.4901C6.46526 18.4216 6.84474 18.2263 7.1395 17.9316L18 7.07107L14.4645 3.53553L3.60396 14.396C3.30921 14.6908 3.11392 15.0703 3.04539 15.4815Z" fill="#333333"/>
</symbol></svg>